<svg width="129" height="113" viewBox="0 0 129 113" fill="none" xmlns="http://www.w3.org/2000/svg">
<g clip-path="url(#clip0_2168_168432)">
<path d="M62.4329 112.271C96.5825 112.271 124.266 101.411 124.266 88.0145C124.266 74.6179 96.5825 63.7578 62.4329 63.7578C28.2833 63.7578 0.599609 74.6179 0.599609 88.0145C0.599609 101.411 28.2833 112.271 62.4329 112.271Z" fill="#EFF2F6"/>
<path d="M60.4476 0.65625L57.8784 16.7615H41.1836L60.4476 0.65625Z" fill="#D0D5DD"/>
<path d="M57.8788 17.1404H41.184C41.0249 17.1404 40.8842 17.0416 40.8289 16.8925C40.7753 16.7435 40.8206 16.576 40.9411 16.4755L60.2051 0.368599C60.3257 0.268109 60.4965 0.253036 60.6322 0.330078C60.7695 0.407121 60.8432 0.561205 60.8181 0.716965L58.2489 16.8239C58.2221 17.0064 58.0647 17.1404 57.8788 17.1404ZM42.2224 16.3867H57.5572L59.917 1.5929L42.2224 16.3867Z" fill="#F9FAFB"/>
<path d="M61.9899 30.9382C61.8743 30.9382 61.7588 30.8846 61.6851 30.7841L60.6684 29.3973C60.5545 29.2416 60.5763 29.0238 60.7204 28.8932C60.8644 28.7642 61.0838 28.7642 61.2262 28.8965C61.2329 28.9032 61.2412 28.9099 61.2479 28.9183C61.2546 28.925 61.2613 28.9334 61.2664 28.9401C61.2831 28.9602 61.3015 28.987 61.3199 29.0121L62.293 30.3386C62.4153 30.5061 62.3801 30.7422 62.2126 30.8645C62.1456 30.9147 62.0686 30.9382 61.9899 30.9382Z" fill="#F9FAFB"/>
<mask id="mask0_2168_168432" style="mask-type:luminance" maskUnits="userSpaceOnUse" x="60" y="28" width="3" height="3">
<path d="M61.9879 30.9382C61.8724 30.9382 61.7568 30.8846 61.6831 30.7841L60.6665 29.3973C60.5526 29.2416 60.5744 29.0238 60.7184 28.8932C60.8624 28.7642 61.0818 28.7642 61.2242 28.8965C61.2309 28.9032 61.2393 28.9099 61.246 28.9183C61.2527 28.925 61.2594 28.9334 61.2644 28.9401C61.2811 28.9602 61.2996 28.987 61.318 29.0121L62.2911 30.3386C62.4133 30.5061 62.3782 30.7422 62.2107 30.8645C62.1437 30.9147 62.0666 30.9382 61.9879 30.9382Z" fill="white"/>
</mask>
<g mask="url(#mask0_2168_168432)">
<path d="M61.775 30.1769L65.999 35.935C65.7477 35.5916 65.4798 35.2583 65.195 34.9334C62.0715 31.3744 57.5176 29.594 52.6807 29.594C50.5821 29.594 48.4316 29.929 46.3196 30.5989L42.0957 24.8408C44.2077 24.1709 46.3582 23.8359 48.4567 23.8359C53.2937 23.8359 57.8475 25.6163 60.9711 29.1753C61.2558 29.5002 61.5238 29.8335 61.775 30.1769Z" fill="#667185"/>
<path d="M65.9994 36.3136C65.8838 36.3136 65.7683 36.26 65.6946 36.1596C65.45 35.8246 65.1854 35.4963 64.9107 35.1831C61.9613 31.8234 57.6185 29.9727 52.6794 29.9727C50.5976 29.9727 48.4973 30.3043 46.4323 30.9592C46.2782 31.0078 46.1107 30.9525 46.0136 30.8235L41.7896 25.0654C41.7176 24.9683 41.6975 24.841 41.736 24.7254C41.7729 24.6099 41.865 24.5194 41.9806 24.4826C44.1193 23.8043 46.2966 23.4609 48.4555 23.4609C53.614 23.4609 58.1595 25.4021 61.2529 28.9276C61.5426 29.2575 61.819 29.6042 62.0786 29.956L66.2992 35.7107C66.3009 35.7124 66.3008 35.714 66.3025 35.714C66.4248 35.8815 66.3896 36.1177 66.2221 36.2416C66.1551 36.2902 66.0781 36.3136 65.9994 36.3136ZM52.6811 29.219C56.5483 29.219 60.0705 30.311 62.8959 32.3426L61.4723 30.4015C61.2278 30.0665 60.9632 29.7382 60.6885 29.425C57.7391 26.0653 53.3962 24.2146 48.4571 24.2146C46.5445 24.2146 44.6151 24.4943 42.7141 25.0487L46.4641 30.162C48.5191 29.5356 50.6093 29.219 52.6811 29.219Z" fill="#F9FAFB"/>
</g>
<path d="M39.6464 56.7768C39.5426 56.7768 39.4404 56.7349 39.365 56.6512L39.3064 56.5842C39.1121 56.3614 38.9262 56.1303 38.7537 55.8958L34.5298 50.1377C34.4075 49.9702 34.4427 49.7341 34.6102 49.6118C34.7777 49.4896 35.0138 49.5247 35.1378 49.6922L35.1411 49.6972C35.3002 49.9133 35.471 50.126 35.6503 50.3303L35.7038 50.3906C35.7122 50.4007 35.7206 50.409 35.7273 50.4191L39.9512 56.1772C40.0701 56.3396 40.0417 56.5657 39.8842 56.693C39.8139 56.75 39.7285 56.7768 39.6464 56.7768Z" fill="#F9FAFB"/>
<mask id="mask1_2168_168432" style="mask-type:luminance" maskUnits="userSpaceOnUse" x="34" y="49" width="7" height="8">
<path d="M39.6464 56.7768C39.5426 56.7768 39.4404 56.7349 39.365 56.6512L39.3064 56.5842C39.1121 56.3614 38.9262 56.1303 38.7537 55.8958L34.5298 50.1377C34.4075 49.9702 34.4427 49.7341 34.6102 49.6118C34.7777 49.4896 35.0138 49.5247 35.1378 49.6922L35.1411 49.6972C35.3002 49.9133 35.471 50.126 35.6503 50.3303L35.7038 50.3906C35.7122 50.4007 35.7206 50.409 35.7273 50.4191L39.9512 56.1772C40.0701 56.3396 40.0417 56.5657 39.8842 56.693C39.8139 56.75 39.7285 56.7768 39.6464 56.7768Z" fill="white"/>
</mask>
<g mask="url(#mask1_2168_168432)">
<g opacity="0.6">
<path d="M35.73 50.9692L39.954 56.7273C39.83 56.6 39.7078 56.4694 39.5905 56.3354C39.4013 56.121 39.2237 55.8983 39.0579 55.6722L34.834 49.9141C34.9998 50.1402 35.1773 50.3629 35.3666 50.5773C35.4838 50.7113 35.6061 50.8419 35.73 50.9692Z" fill="#667185"/>
<path d="M39.9546 57.105C39.8558 57.105 39.7586 57.0665 39.6849 56.9911C39.5543 56.8588 39.427 56.7215 39.3064 56.5842C39.1121 56.3631 38.9262 56.132 38.7537 55.8958L34.5298 50.1377C34.4075 49.9702 34.4427 49.7341 34.6102 49.6118C34.7777 49.4896 35.0138 49.5247 35.1377 49.6922L35.1411 49.6972C35.3002 49.9133 35.471 50.126 35.6502 50.3303C35.7625 50.4576 35.8797 50.5849 36.0003 50.7072C36.0137 50.7206 36.0237 50.734 36.0355 50.7474L40.2594 56.5054C40.3766 56.6646 40.3498 56.8873 40.1991 57.0163C40.1288 57.0766 40.0417 57.105 39.9546 57.105Z" fill="#F9FAFB"/>
</g>
</g>
<path d="M39.9551 57.1081C39.8562 57.1081 39.7591 57.0696 39.6854 56.9943C39.5766 56.8837 39.4694 56.7698 39.3655 56.6526C39.3622 56.6476 39.3571 56.6442 39.3538 56.6392C39.3103 56.5856 39.26 56.5153 39.2131 56.4499L39.1612 56.3779L35.1181 50.866C34.9992 50.7036 35.0277 50.4775 35.1851 50.3502C35.3409 50.2229 35.5687 50.2413 35.7027 50.392C35.7998 50.4992 35.8986 50.6047 35.9991 50.7086C36.0108 50.722 36.0225 50.7354 36.0343 50.7488L40.2582 56.5069C40.3754 56.666 40.3487 56.8887 40.1979 57.0177C40.1276 57.0797 40.0422 57.1081 39.9551 57.1081Z" fill="#F9FAFB"/>
<mask id="mask2_2168_168432" style="mask-type:luminance" maskUnits="userSpaceOnUse" x="35" y="50" width="6" height="8">
<path d="M39.957 57.1081C39.8582 57.1081 39.7611 57.0696 39.6874 56.9943C39.5785 56.8837 39.4713 56.7698 39.3675 56.6526C39.3641 56.6476 39.3591 56.6442 39.3558 56.6392C39.3122 56.5856 39.262 56.5153 39.2151 56.4499L39.1631 56.3779L35.1201 50.866C35.0012 50.7036 35.0296 50.4775 35.1871 50.3502C35.3428 50.2229 35.5706 50.2413 35.7046 50.392C35.8018 50.4992 35.9006 50.6047 36.0011 50.7086C36.0128 50.722 36.0245 50.7354 36.0362 50.7488L40.2602 56.5069C40.3774 56.666 40.3506 56.8887 40.1999 57.0177C40.1295 57.0797 40.0441 57.1081 39.957 57.1081Z" fill="white"/>
</mask>
<g mask="url(#mask2_2168_168432)">
<g opacity="0.6">
<path d="M35.732 50.9692L39.9559 56.7273C39.832 56.6 39.7097 56.4694 39.5925 56.3354C39.4032 56.121 39.2257 55.8983 39.0599 55.6722L34.8359 49.9141C35.0017 50.1402 35.1793 50.3629 35.3685 50.5773C35.4858 50.7113 35.608 50.8419 35.732 50.9692Z" fill="#667185"/>
<path d="M39.9565 57.105C39.8577 57.105 39.7606 57.0665 39.6869 56.9911C39.5563 56.8588 39.429 56.7215 39.3084 56.5842C39.1141 56.3631 38.9282 56.132 38.7557 55.8958L34.5317 50.1377C34.4095 49.9702 34.4446 49.7341 34.6121 49.6118C34.7796 49.4896 35.0158 49.5247 35.1397 49.6922L35.1431 49.6972C35.3022 49.9133 35.473 50.126 35.6522 50.3303C35.7644 50.4576 35.8817 50.5849 36.0022 50.7072C36.0156 50.7206 36.0257 50.734 36.0374 50.7474L40.2614 56.5054C40.3786 56.6646 40.3518 56.8873 40.2011 57.0163C40.1307 57.0766 40.0436 57.105 39.9565 57.105Z" fill="#F9FAFB"/>
</g>
</g>
<path d="M57.6474 43.8945C57.5469 44.2127 57.4313 44.5326 57.304 44.8474C57.031 45.5241 56.6994 46.189 56.3092 46.8338C56.1216 47.1436 55.9223 47.4501 55.7062 47.7516C54.976 48.7816 54.0884 49.7497 53.05 50.6156C50.2245 52.9788 46.8279 54.1579 43.6189 54.1579C40.4116 54.1579 37.3919 52.9771 35.3218 50.6156C31.1766 45.8925 32.3975 38.2385 38.0468 33.5188C40.8722 31.1557 44.2688 29.9766 47.4778 29.9766C50.6851 29.9766 53.7048 31.1573 55.7749 33.5188C55.8352 33.5875 55.8922 33.6545 55.9457 33.7232C56.2154 34.0481 56.4633 34.3881 56.6844 34.7348C57.0846 35.3645 57.4012 36.0261 57.6457 36.7195C57.7713 37.0712 57.8752 37.4313 57.9572 37.7964C58.4111 39.7492 58.2955 41.8528 57.6474 43.8945Z" fill="#E4E7EC"/>
<path d="M57.9574 37.7964H46.9102C45.7445 37.7964 44.9422 36.887 45.1231 35.7615C45.3023 34.636 46.3927 33.7266 47.56 33.7266H55.9476C56.2172 34.0515 56.4651 34.3915 56.6862 34.7382C57.0865 35.3679 57.403 36.0295 57.6475 36.7228C57.7715 37.0712 57.8753 37.4313 57.9574 37.7964Z" fill="#98A2B3"/>
<path d="M57.6465 43.8923C57.546 44.2105 57.4304 44.5304 57.3032 44.8453C57.0302 45.5219 56.6985 46.1868 56.3083 46.8316C56.1207 47.1415 55.9214 47.448 55.7054 47.7494H45.2075C44.1004 47.7494 43.3467 46.8852 43.5159 45.82C43.6867 44.7548 44.7184 43.8906 45.8222 43.8906H57.6465V43.8923Z" fill="#98A2B3"/>
<path d="M60.7845 0.382812H107.387L106.675 4.84793L94.4287 81.6325H35.471H30.8418L34.5449 58.4092C36.9834 59.672 39.767 60.3034 42.6494 60.3034C46.5233 60.3034 50.5781 59.1629 54.2275 56.8801H86.9036C87.4714 56.8801 87.9989 56.4379 88.0877 55.8903C88.1748 55.3459 87.7862 54.9038 87.2201 54.9038H56.9358C59.7026 52.5724 61.7543 49.7721 63.0472 46.8143H88.5098C89.0775 46.8143 89.6051 46.3722 89.6922 45.8278C89.7793 45.2818 89.3907 44.838 88.8246 44.838H63.7942C64.6534 42.1432 64.8912 39.3747 64.4826 36.7485H90.1143C90.682 36.7485 91.2096 36.3064 91.2967 35.7621C91.3838 35.2161 90.9952 34.7722 90.4291 34.7722H64.0421C63.4458 32.7407 62.4292 30.838 60.9738 29.1749C57.8502 25.6159 53.2963 23.8356 48.4594 23.8356C45.5787 23.8356 42.5991 24.467 39.7586 25.7281L41.1873 16.7661H57.882L60.4512 0.662513L60.7845 0.382812ZM85.2991 66.9442C85.8669 66.9442 86.3945 66.502 86.4832 65.9543C86.5703 65.41 86.1817 64.9679 85.6157 64.9679H45.8634C45.299 64.9679 44.7697 65.41 44.6826 65.9543C44.5956 66.5003 44.9841 66.9442 45.5485 66.9442H85.2991ZM91.7204 26.6845C92.2882 26.6845 92.8158 26.2423 92.9029 25.698C92.99 25.152 92.6014 24.7081 92.0353 24.7081H65.0889C64.5228 24.7081 63.9952 25.1503 63.9081 25.698C63.821 26.2423 64.2062 26.6845 64.774 26.6845H91.7204Z" fill="#F7F9FC"/>
<path d="M94.428 82.0067H30.8412C30.7306 82.0067 30.6268 81.9581 30.5548 81.8744C30.4828 81.7906 30.4526 81.6801 30.4694 81.5712L34.1741 58.348C34.1925 58.229 34.2679 58.1252 34.3768 58.0716C34.4839 58.0163 34.6129 58.018 34.7201 58.0733C37.0615 59.2859 39.8032 59.9257 42.6504 59.9257C46.5746 59.9257 50.5088 58.7617 54.0276 56.5592C54.0879 56.5224 54.1566 56.5023 54.2269 56.5023H86.903C87.2848 56.5023 87.6567 56.1941 87.7136 55.8307C87.737 55.6833 87.7036 55.546 87.6181 55.4455C87.5277 55.3383 87.3853 55.2797 87.2178 55.2797H56.9351C56.776 55.2797 56.6353 55.1808 56.5817 55.0318C56.5281 54.8827 56.5717 54.7169 56.6923 54.6148C59.3151 52.404 61.3935 49.6539 62.7016 46.6626C62.7619 46.5253 62.8975 46.4365 63.0466 46.4365H88.5092C88.891 46.4365 89.2628 46.13 89.3198 45.7666C89.3432 45.6175 89.3097 45.4802 89.2243 45.3797C89.1339 45.2725 88.9915 45.2139 88.824 45.2139H63.7936C63.673 45.2139 63.5608 45.1569 63.4888 45.0598C63.4184 44.9627 63.3983 44.8371 63.4335 44.7232C64.2726 42.092 64.5054 39.3536 64.1085 36.8062C64.0917 36.6973 64.1235 36.5868 64.1939 36.5031C64.2642 36.4193 64.3697 36.3708 64.4803 36.3708H90.112C90.4938 36.3708 90.8656 36.0643 90.9226 35.7008C90.946 35.5518 90.9125 35.4144 90.8271 35.3139C90.7367 35.2067 90.5943 35.1481 90.4268 35.1481H64.0415C63.874 35.1481 63.7266 35.0376 63.6797 34.8768C63.0835 32.8419 62.0769 31.0063 60.6884 29.4219C57.7391 26.0621 53.3962 24.2114 48.4571 24.2114C45.6032 24.2114 42.6471 24.8546 39.9087 26.0722C39.7831 26.1275 39.6357 26.1107 39.5252 26.027C39.4147 25.9432 39.3611 25.8059 39.3828 25.6685L40.8115 16.7065C40.8399 16.5239 40.9991 16.3883 41.1833 16.3883H57.5565L60.0738 0.601268C60.0872 0.512502 60.1341 0.430433 60.2027 0.371814L60.5377 0.0887661C60.6064 0.0318217 60.6918 0 60.7806 0H107.386C107.497 0 107.601 0.0485717 107.673 0.132314C107.745 0.216055 107.775 0.326594 107.758 0.435459L94.7998 81.6851C94.7714 81.8727 94.6139 82.0067 94.428 82.0067ZM31.2817 81.253H94.1065L106.944 0.757027H60.9212L60.799 0.860866L58.2532 16.8271C58.2248 17.0096 58.0656 17.1453 57.8814 17.1453H41.5082L40.237 25.1159C42.8916 24.0306 45.7187 23.4594 48.4588 23.4594C53.6173 23.4594 58.1628 25.4006 61.2562 28.9261C62.6547 30.5239 63.6847 32.3612 64.3212 34.3945H90.4302C90.8154 34.3945 91.1705 34.5519 91.4033 34.8249C91.6344 35.0962 91.7299 35.4496 91.6696 35.8197C91.5523 36.5516 90.869 37.1244 90.1136 37.1244H64.9157C65.2206 39.501 65.0095 42.0183 64.3011 44.4602H88.824C89.2092 44.4602 89.5643 44.6177 89.7971 44.8907C90.0282 45.162 90.1237 45.5154 90.0634 45.8855C89.9462 46.6174 89.2628 47.1902 88.5075 47.1902H63.2911C62.0635 49.9068 60.2245 52.4207 57.9333 54.526H87.2178C87.6031 54.526 87.9581 54.6834 88.1909 54.9564C88.4221 55.2277 88.5159 55.5795 88.4572 55.9496C88.34 56.6815 87.6567 57.256 86.9013 57.256H54.3341C50.7181 59.4969 46.6801 60.6793 42.6488 60.6793C39.8669 60.6793 37.1788 60.0915 34.8357 58.9727L31.2817 81.253ZM85.2985 67.3201H45.5479C45.1644 67.3201 44.8093 67.1643 44.5765 66.8896C44.3454 66.6183 44.2499 66.2649 44.3102 65.8931C44.4275 65.1612 45.1091 64.5884 45.8628 64.5884H85.6134C85.9986 64.5884 86.3536 64.7458 86.5864 65.0188C86.8176 65.2902 86.9114 65.6419 86.8527 66.012C86.7372 66.7456 86.0538 67.3201 85.2985 67.3201ZM45.8628 65.3438C45.4826 65.3438 45.1125 65.6503 45.0538 66.0137C45.0304 66.1628 45.0639 66.3018 45.1493 66.4023C45.2397 66.5094 45.3821 66.5681 45.5462 66.5681H85.2968C85.6787 66.5681 86.0505 66.2599 86.1074 65.8965C86.1309 65.7491 86.0974 65.6117 86.012 65.5112C85.9215 65.4041 85.7792 65.3454 85.6117 65.3454H45.8628V65.3438ZM91.7198 27.0603H64.7734C64.3881 27.0603 64.0348 26.9046 63.802 26.6316C63.5708 26.3603 63.477 26.0085 63.5357 25.6384C63.6529 24.9048 64.3346 24.332 65.0882 24.332H92.0347C92.4199 24.332 92.775 24.4895 93.0078 24.7625C93.2389 25.0338 93.3344 25.3872 93.2741 25.7573C93.1585 26.4875 92.4752 27.0603 91.7198 27.0603ZM65.0882 25.084C64.708 25.084 64.3379 25.3922 64.2793 25.7556C64.2558 25.9047 64.2893 26.042 64.3748 26.1409C64.4652 26.2464 64.6059 26.305 64.7734 26.305H91.7198C92.1017 26.305 92.4735 25.9985 92.5304 25.635C92.5539 25.486 92.5204 25.3487 92.435 25.2482C92.3445 25.141 92.2022 25.0824 92.0347 25.0824H65.0882V25.084Z" fill="#F9FAFB"/>
<g opacity="0.5">
<g opacity="0.6">
<path d="M38.5672 33.1719L38.1669 35.6858C38.1049 35.7327 38.043 35.7796 37.9827 35.8315C36.621 36.9671 36.3279 38.8127 37.3261 39.9499C37.3697 40.0002 37.4166 40.0488 37.4651 40.094L35.73 50.9704C35.6061 50.8431 35.4838 50.7124 35.3666 50.5784C33.3065 48.2286 32.5796 45.1486 33.072 42.0703C33.5628 38.9903 35.2711 35.9119 38.0815 33.5638C38.2389 33.4298 38.403 33.2992 38.5672 33.1719Z" fill="#D0D5DD"/>
</g>
</g>
<path d="M88.8223 44.8359C89.3901 44.8359 89.777 45.2781 89.6899 45.8258C89.6028 46.3701 89.0736 46.8122 88.5075 46.8122H63.0449C63.3313 46.1607 63.5809 45.5008 63.7902 44.8359H88.8223Z" fill="#D0D5DD"/>
<path d="M88.5084 47.1892H63.0458C62.9185 47.1892 62.7996 47.1256 62.731 47.0184C62.6623 46.9112 62.6506 46.7772 62.7008 46.6617C62.9839 46.0152 63.2301 45.3637 63.4327 44.7239C63.4813 44.5665 63.627 44.4609 63.7928 44.4609H88.8232C89.2085 44.4609 89.5635 44.6184 89.7963 44.8914C90.0275 45.1627 90.1229 45.5161 90.0626 45.8862C89.9471 46.6164 89.2637 47.1892 88.5084 47.1892ZM63.6153 46.4356H88.5084C88.8902 46.4356 89.2621 46.1291 89.319 45.7656C89.3425 45.6166 89.309 45.4792 89.2235 45.3787C89.1331 45.2716 88.9907 45.2129 88.8232 45.2129H64.0658C63.9318 45.6183 63.7811 46.0269 63.6153 46.4356Z" fill="#D0D5DD"/>
<path d="M87.2208 54.8984C87.7886 54.8984 88.1755 55.3406 88.0884 55.8849C88.0013 56.4309 87.4721 56.8747 86.9043 56.8747H54.2266C55.1326 56.3086 56.0136 55.6705 56.8594 54.9638C56.8845 54.942 56.9113 54.9202 56.9365 54.9001H87.2208V54.8984Z" fill="#D0D5DD"/>
<path d="M86.9039 57.2517H54.2262C54.0587 57.2517 53.9097 57.1412 53.8644 56.9788C53.8176 56.818 53.8845 56.6438 54.0269 56.555C54.9263 55.9923 55.7972 55.3592 56.6179 54.6742L56.6882 54.6156C56.7569 54.5586 56.8473 54.5234 56.9361 54.5234H87.2205C87.6057 54.5234 87.9608 54.6809 88.1936 54.9539C88.4247 55.2252 88.5185 55.5769 88.4599 55.947C88.3426 56.6773 87.661 57.2517 86.9039 57.2517ZM55.4756 56.4981H86.9039C87.2858 56.4981 87.6576 56.1899 87.7146 55.8265C87.738 55.6791 87.7045 55.5417 87.6191 55.4412C87.5287 55.3341 87.3863 55.2754 87.2188 55.2754H57.0718C56.5593 55.7042 56.025 56.1129 55.4756 56.4981Z" fill="#D0D5DD"/>
<path d="M111.19 5.56811L110.594 9.31304L110.479 10.0349L98.3478 86.0942H34.1161L30.8418 81.6308H94.4286L106.675 4.8496L107.389 0.382812L111.19 5.56811Z" fill="#E4E7EC"/>
<path d="M98.347 86.4733H34.1171C33.9965 86.4733 33.8843 86.4164 33.8139 86.3192L30.5379 81.8558C30.4542 81.7419 30.4408 81.5895 30.5061 81.4622C30.5698 81.3349 30.7004 81.2562 30.8428 81.2562H94.108L106.304 4.79152L107.018 0.32473C107.041 0.173994 107.153 0.0534084 107.301 0.0182368C107.45 -0.0169347 107.604 0.038335 107.693 0.162273L111.494 5.34757C111.555 5.42796 111.578 5.53012 111.563 5.62894L110.851 10.0957L98.7189 86.1568C98.6887 86.3393 98.5313 86.4733 98.347 86.4733ZM34.3063 85.7196H98.0238L110.106 9.97682L110.793 5.66578L107.617 1.33466L107.046 4.91044L94.7997 81.6916C94.7713 81.8742 94.6122 82.0099 94.4279 82.0099H31.5847L34.3063 85.7196Z" fill="#F9FAFB"/>
<path d="M102.264 90.5547L106.488 96.3128H42.8978L38.6738 90.5547H102.264Z" fill="#D0D5DD"/>
<path d="M106.487 96.6915H42.897C42.7765 96.6915 42.6642 96.6345 42.5939 96.5374L38.37 90.7793C38.2862 90.6654 38.2728 90.513 38.3381 90.3857C38.4018 90.2584 38.5324 90.1797 38.6748 90.1797H102.265C102.386 90.1797 102.498 90.2366 102.568 90.3338L106.792 96.0919C106.876 96.2057 106.889 96.3582 106.824 96.4854C106.759 96.6111 106.63 96.6915 106.487 96.6915ZM43.088 95.9378H105.744L102.072 90.9334H39.4167L43.088 95.9378Z" fill="#F9FAFB"/>
<path d="M115.222 9.3125L102.264 90.5605H38.6738L39.3856 86.0937H98.3466L110.591 9.3125H115.222Z" fill="#F7F9FC"/>
<path d="M102.263 90.9392H38.6732C38.5627 90.9392 38.4588 90.8906 38.3868 90.8069C38.3148 90.7231 38.2846 90.6126 38.3014 90.5037L39.0132 86.0386C39.0417 85.8561 39.2008 85.7204 39.385 85.7204H98.0244L110.219 9.25572C110.247 9.07316 110.406 8.9375 110.591 8.9375H115.222C115.332 8.9375 115.436 8.98607 115.508 9.06981C115.58 9.15356 115.61 9.26409 115.593 9.37296L102.635 90.621C102.607 90.8035 102.449 90.9392 102.263 90.9392ZM39.1154 90.1855H101.942L114.779 9.69118H110.912L98.7178 86.1559C98.6893 86.3384 98.5302 86.4741 98.346 86.4741H39.7066L39.1154 90.1855Z" fill="#F9FAFB"/>
<path d="M115.222 9.3125L119.446 15.0706L106.488 96.3186L102.264 90.5605L115.222 9.3125Z" fill="#E4E7EC"/>
<path d="M106.489 96.6976C106.37 96.6976 106.258 96.6424 106.186 96.5435L101.962 90.7854C101.901 90.7051 101.878 90.6029 101.893 90.5024L114.851 9.25442C114.875 9.10368 114.987 8.9831 115.134 8.94792C115.283 8.91275 115.438 8.96802 115.526 9.09196L119.75 14.85C119.811 14.9304 119.834 15.0326 119.819 15.1331L106.861 96.3811C106.837 96.5318 106.725 96.6524 106.578 96.6876C106.547 96.6943 106.517 96.6976 106.489 96.6976ZM102.662 90.4656L106.258 95.3695L119.048 15.1683L115.453 10.2643L102.662 90.4656Z" fill="#F9FAFB"/>
<path d="M32.2699 56.9688L10.3262 75.3132C10.2743 75.3568 10.2207 75.3953 10.1671 75.4355C10.142 75.4539 10.1185 75.4723 10.0934 75.4908C10.0498 75.5209 10.0046 75.5477 9.96107 75.5762C9.92925 75.5963 9.89743 75.6181 9.8656 75.6365C9.84216 75.6499 9.81704 75.6616 9.79359 75.675C9.73497 75.7068 9.67467 75.7386 9.61438 75.7654C9.59261 75.7755 9.57083 75.7839 9.54906 75.7922C9.46867 75.8274 9.38828 75.8576 9.30788 75.8844C9.27104 75.8978 9.23252 75.9095 9.194 75.9212C9.16385 75.9296 9.13203 75.9396 9.10188 75.9463C9.05331 75.958 9.00474 75.9698 8.95617 75.9798C8.92602 75.9865 8.89587 75.9915 8.8674 75.9966C8.81381 76.0049 8.76189 76.0116 8.70829 76.0183C8.68317 76.0217 8.65805 76.025 8.63292 76.0267C8.55588 76.0334 8.47716 76.0368 8.40012 76.0368C7.74359 76.0368 7.12725 75.7956 6.70351 75.3132L5.92136 74.4222C5.88284 74.3787 5.84767 74.3335 5.8125 74.2866L10.0364 80.0447C10.0699 80.0915 10.1068 80.1368 10.1453 80.1803L10.9275 81.0713C11.3512 81.5537 11.9675 81.7948 12.6241 81.7948C12.7011 81.7948 12.7781 81.7915 12.8569 81.7848C12.882 81.7831 12.9071 81.7781 12.9322 81.7764C12.9858 81.7697 13.0377 81.763 13.0913 81.7547C13.1215 81.7496 13.1516 81.7429 13.1801 81.7379C13.2287 81.7279 13.2772 81.7178 13.3258 81.7044C13.3576 81.696 13.3878 81.6877 13.4179 81.6793C13.4397 81.6726 13.4632 81.6676 13.4849 81.6609C13.5 81.6558 13.5151 81.6491 13.5318 81.6424C13.6139 81.6156 13.6943 81.5838 13.773 81.5503C13.7881 81.5436 13.8048 81.5386 13.8216 81.5319C13.8283 81.5285 13.8333 81.5252 13.84 81.5235C13.9003 81.4951 13.9589 81.4649 14.0192 81.4331C14.041 81.4214 14.0627 81.413 14.0845 81.3996C14.0879 81.3979 14.0895 81.3962 14.0912 81.3946C14.123 81.3761 14.1549 81.3544 14.1867 81.3343C14.2269 81.3091 14.2688 81.2857 14.3089 81.2572C14.3123 81.2556 14.3156 81.2522 14.319 81.2489C14.3441 81.2321 14.3676 81.212 14.3927 81.1936C14.4329 81.1634 14.4748 81.135 14.5133 81.1031C14.5267 81.0931 14.5384 81.083 14.5518 81.0713L36.4955 62.7268L32.2699 56.9688Z" fill="#667185"/>
<path d="M12.623 82.1699C11.8291 82.1699 11.1257 81.8667 10.6434 81.3174L9.8612 80.4264C9.81598 80.3744 9.77244 80.3208 9.73224 80.2656L5.50998 74.5108C5.50998 74.5092 5.5083 74.5092 5.5083 74.5075C5.38604 74.34 5.42121 74.1039 5.5887 73.9816C5.75618 73.8593 5.99233 73.8945 6.11459 74.062L6.11627 74.0653C6.14307 74.1022 6.17154 74.1374 6.20168 74.1725L6.98383 75.0635C7.32047 75.4471 7.82293 75.6581 8.39739 75.6581C8.46439 75.6581 8.52971 75.6548 8.5967 75.6481L8.6637 75.6397C8.70892 75.6347 8.75414 75.6296 8.80103 75.6213C8.81945 75.6179 8.83955 75.6146 8.85797 75.6095L8.87975 75.6045C8.92162 75.5961 8.96516 75.5861 9.00704 75.576C9.03383 75.5693 9.06231 75.561 9.0891 75.5543C9.1226 75.5442 9.15442 75.5342 9.18792 75.5224C9.25826 75.499 9.32861 75.4722 9.39895 75.4421L9.45589 75.4186C9.50949 75.3935 9.56141 75.3667 9.61333 75.3382L9.67697 75.3047C9.69037 75.2963 9.70544 75.288 9.71884 75.2779L9.78918 75.2327C9.81933 75.2143 9.84781 75.1958 9.87795 75.1757C9.888 75.169 9.89805 75.1607 9.9081 75.1523L9.95667 75.1155C9.99854 75.0836 10.0421 75.0535 10.0823 75.0183L32.026 56.6738C32.1064 56.6068 32.2085 56.5767 32.3124 56.5884C32.4162 56.6001 32.5083 56.6554 32.5703 56.7392L36.7943 62.4972C36.9115 62.658 36.8847 62.8825 36.7323 63.0097L14.7484 81.3944C14.7132 81.4229 14.678 81.4497 14.6412 81.4748L14.5926 81.51C14.5725 81.5251 14.5524 81.5401 14.5323 81.5552C14.4871 81.587 14.4519 81.6088 14.4168 81.6306L14.3548 81.6691C14.3313 81.6842 14.3079 81.6992 14.2844 81.7126C14.2777 81.7177 14.271 81.721 14.2643 81.7244C14.2493 81.7327 14.2292 81.7428 14.2108 81.7512L14.1957 81.7579C14.1287 81.793 14.0634 81.8282 13.9947 81.86C13.9964 81.86 13.9846 81.865 13.9746 81.8701C13.9579 81.8768 13.9394 81.8851 13.921 81.8918C13.8306 81.9304 13.7401 81.9655 13.6497 81.9957C13.6346 82.0024 13.6145 82.0091 13.5961 82.0158C13.5793 82.0208 13.5592 82.0258 13.5408 82.0309L13.5224 82.0359C13.4872 82.0459 13.4521 82.056 13.4169 82.0644C13.3616 82.0777 13.308 82.0912 13.2527 82.1012L13.2343 82.1046C13.2059 82.1096 13.1791 82.1163 13.1506 82.1213C13.0903 82.1313 13.03 82.1397 12.9714 82.1464L12.9496 82.1498C12.9278 82.1531 12.9077 82.1548 12.886 82.1565C12.7922 82.1665 12.7068 82.1699 12.623 82.1699ZM7.79613 76.3515L10.3419 79.8218C10.3687 79.8586 10.3988 79.8954 10.429 79.9306L11.2111 80.8216C11.5863 81.2504 12.1758 81.4631 12.824 81.4078L12.8893 81.3994C12.9345 81.3944 12.9814 81.3894 13.0266 81.381C13.0451 81.3777 13.0652 81.3743 13.0836 81.3693L13.1037 81.3659C13.1472 81.3576 13.1891 81.3475 13.231 81.3375C13.2578 81.3308 13.2846 81.3224 13.313 81.3157L13.37 81.3006C13.38 81.2956 13.3968 81.2889 13.4119 81.2839C13.4822 81.2604 13.5542 81.2336 13.6246 81.2018C13.638 81.1951 13.653 81.1901 13.6681 81.1851L13.6798 81.18C13.7351 81.1549 13.787 81.1264 13.8406 81.098C13.854 81.0896 13.8691 81.0829 13.8825 81.0762L13.8942 81.0695C13.8976 81.0661 13.9026 81.0645 13.9059 81.0628C13.9177 81.0561 13.9327 81.046 13.9478 81.0377L14.0265 80.9891C14.05 80.9757 14.0734 80.9606 14.0952 80.9456C14.1153 80.9305 14.1253 80.9238 14.1354 80.9154L14.199 80.8668C14.2242 80.8484 14.2493 80.83 14.2744 80.8099L14.3079 80.7831L35.982 62.6647L32.2052 57.5146L10.568 75.6012C10.5144 75.6447 10.4608 75.6866 10.4055 75.7268L10.3687 75.7552C10.3486 75.7703 10.3302 75.7854 10.3101 75.7988C10.2699 75.8256 10.2297 75.8507 10.1895 75.8758L10.1309 75.9127C10.1057 75.9294 10.0806 75.9445 10.0555 75.9596C10.0354 75.9713 10.0153 75.9814 9.99519 75.9914L9.97342 76.0031C9.9081 76.0383 9.8411 76.0735 9.77411 76.1053C9.75569 76.1137 9.73726 76.122 9.71717 76.1287L9.69874 76.1371C9.60998 76.1756 9.51954 76.2108 9.42742 76.241C9.38555 76.256 9.342 76.2694 9.30013 76.2811C9.26496 76.2912 9.22979 76.3012 9.19462 76.3096C9.14102 76.323 9.08575 76.3364 9.03048 76.3465L9.01206 76.3498C8.98526 76.3548 8.95679 76.3615 8.92999 76.3649C8.8697 76.3749 8.81108 76.3833 8.75079 76.39L8.72734 76.3934C8.70724 76.3967 8.68547 76.3984 8.6637 76.4001C8.5699 76.4084 8.48281 76.4118 8.39907 76.4118C8.19139 76.4118 7.98874 76.3917 7.79613 76.3515Z" fill="#F9FAFB"/>
<path d="M64.4836 36.7473C64.3798 36.079 64.2324 35.4174 64.0415 34.7709C63.4469 32.7377 62.4286 30.8368 60.9732 29.1736C57.8496 25.6146 53.2957 23.8359 48.4588 23.8359C45.5764 23.8359 42.5968 24.4657 39.758 25.7302C37.8252 26.5894 35.9595 27.7383 34.2344 29.1803C26.6156 35.5481 24.3428 45.4631 28.4277 52.5812L6.48066 70.929C5.32838 71.8904 5.0805 73.453 5.92462 74.4194L6.70677 75.3104C7.12882 75.7927 7.74852 76.0356 8.4017 76.0356C9.05824 76.0356 9.7533 75.7927 10.3278 75.3104L32.2732 56.9676C32.99 57.5119 33.7504 57.9942 34.5459 58.4062C36.9845 59.6674 39.768 60.3005 42.6504 60.3005C46.526 60.3005 50.5808 59.1616 54.2269 56.8771C55.1347 56.311 56.014 55.6729 56.9385 54.9008C59.7036 52.5678 61.757 49.7691 63.05 46.8097C63.333 46.1615 63.5842 45.4983 63.7936 44.8334C64.6528 42.1436 64.8923 39.3717 64.4836 36.7473ZM53.0512 50.6182C50.2257 52.9814 46.8292 54.1605 43.6202 54.1605C40.4129 54.1605 37.3931 52.9798 35.323 50.6182C31.1778 45.8952 32.3988 38.2412 38.048 33.5215C40.8734 31.1583 44.27 29.9792 47.479 29.9792C50.6863 29.9792 53.706 31.16 55.7761 33.5215C55.8364 33.5902 55.8934 33.6572 55.947 33.7258C56.2166 34.0508 56.4645 34.3908 56.6856 34.7374C57.0859 35.3672 57.4024 36.0287 57.6469 36.7221C57.7725 37.0738 57.8764 37.4339 57.9585 37.7991C58.4107 39.7536 58.2968 41.8572 57.6469 43.8971C57.5464 44.2154 57.4309 44.5352 57.3036 44.8501C57.0306 45.5267 56.699 46.1917 56.3087 46.8365C56.1212 47.1463 55.9219 47.4528 55.7058 47.7543C54.9789 48.7843 54.0896 49.7524 53.0512 50.6182Z" fill="#98A2B3"/>
<path d="M8.40149 76.4142C7.60761 76.4142 6.90418 76.1111 6.4235 75.5601L5.64135 74.6691C5.20925 74.1733 5.00157 73.5218 5.05516 72.8351C5.12048 72.0144 5.55091 71.2139 6.23927 70.6411L27.9468 52.4942C26.0358 48.9938 25.5485 44.7531 26.5768 40.5124C27.6403 36.1294 30.2749 32.0026 33.9947 28.8924C35.7097 27.4588 37.5989 26.2797 39.607 25.387C42.4375 24.1275 45.4991 23.4609 48.4619 23.4609C53.6204 23.4609 58.1659 25.4021 61.2593 28.9276C62.7231 30.5991 63.7816 32.5302 64.4063 34.6673C64.599 35.3221 64.7514 36.0021 64.8585 36.6905C65.2739 39.3518 65.0294 42.2091 64.1551 44.9508C63.9458 45.6157 63.6912 46.2923 63.3981 46.9622C62.0448 50.059 59.8943 52.9029 57.1828 55.1907C56.265 55.9578 55.3639 56.6143 54.4277 57.1972C50.7933 59.4733 46.7217 60.6775 42.6519 60.6775C39.6858 60.6775 36.8235 60.0075 34.3748 58.7414C33.6547 58.3696 32.9546 57.9341 32.288 57.4484L10.5687 75.6019C9.94401 76.1245 9.17526 76.4142 8.40149 76.4142ZM48.4602 24.2146C45.603 24.2146 42.6469 24.8577 39.9119 26.0754C37.9674 26.9396 36.1385 28.0818 34.477 29.4703C27.0843 35.6487 24.6775 45.2908 28.7558 52.3937C28.8462 52.5528 28.811 52.7538 28.6704 52.8711L6.72162 71.2189C6.18903 71.6644 5.85406 72.274 5.80549 72.8937C5.76697 73.3778 5.90933 73.8316 6.20745 74.1716L6.9896 75.0626C7.32624 75.4479 7.82702 75.6589 8.40149 75.6589C8.99773 75.6589 9.59732 75.4328 10.0864 75.0224L32.0318 56.6796C32.1674 56.5674 32.3617 56.5624 32.5024 56.6696C33.2041 57.2039 33.9494 57.6762 34.7199 58.0731C37.0613 59.284 39.8047 59.9255 42.6519 59.9255C46.5794 59.9255 50.5136 58.7615 54.0274 56.5607C54.9335 55.9946 55.8077 55.3582 56.6971 54.6146C59.3199 52.4038 61.3967 49.6537 62.7047 46.6624C62.9878 46.016 63.2323 45.3644 63.4349 44.7247C64.274 42.0918 64.5085 39.3551 64.1116 36.8077C64.0094 36.1528 63.8654 35.5047 63.6811 34.8816C63.0882 32.8501 62.0817 31.0144 60.6899 29.425C57.7422 26.0653 53.3976 24.2146 48.4602 24.2146ZM43.6199 54.5392C40.1614 54.5392 37.1132 53.2362 35.0381 50.868C33.1857 48.7577 32.293 45.964 32.5225 42.9996C32.8039 39.3635 34.7299 35.8028 37.8049 33.2336C40.6052 30.8922 44.0403 29.6026 47.4788 29.6026C50.9373 29.6026 53.9855 30.9056 56.0606 33.2738C56.1243 33.3458 56.1846 33.4178 56.2432 33.4915C56.5145 33.8181 56.7724 34.1715 57.0052 34.535C57.4089 35.168 57.7455 35.8614 58.0051 36.595C58.1341 36.9568 58.2429 37.3336 58.3284 37.7155C58.7923 39.7169 58.6818 41.8942 58.0085 44.0112C57.903 44.3428 57.784 44.6727 57.6551 44.9926C57.3754 45.6877 57.032 46.3727 56.6334 47.0326C56.4308 47.3659 56.2298 47.674 56.0154 47.9755C55.2517 49.0524 54.3356 50.0389 53.2938 50.9098C50.4935 53.2496 47.0584 54.5392 43.6199 54.5392ZM47.4788 30.3562C44.2179 30.3562 40.9536 31.5839 38.2889 33.8114C35.368 36.2517 33.5391 39.6231 33.2745 43.0582C33.0601 45.8183 33.8891 48.4143 35.6059 50.3705C37.5353 52.5729 40.3825 53.7855 43.6199 53.7855C46.8809 53.7855 50.1451 52.5579 52.8098 50.3303C53.803 49.5013 54.6739 48.5617 55.4007 47.5384C55.6034 47.252 55.796 46.9606 55.9886 46.6423C56.3655 46.0176 56.6904 45.3678 56.9567 44.7096C57.0789 44.4081 57.1912 44.0966 57.29 43.7834C57.9214 41.7954 58.0269 39.7554 57.5931 37.883C57.5144 37.5296 57.4139 37.1812 57.295 36.8479C57.0538 36.1662 56.7423 35.5248 56.3705 34.9403C56.1561 34.6036 55.9166 34.2754 55.6603 33.9672C55.6051 33.8985 55.5515 33.8349 55.4962 33.7712C53.5635 31.5688 50.7162 30.3562 47.4788 30.3562Z" fill="#F9FAFB"/>
<path d="M44.0786 39.5713C44.0451 39.4758 44.0032 39.3854 43.9462 39.2999C43.9111 39.2413 43.8692 39.1861 43.8223 39.1325C43.5393 38.8109 43.1273 38.6484 42.6885 38.6484C42.6533 38.6484 42.6181 38.6501 42.5813 38.6518C42.1743 38.6752 41.7539 38.836 41.3988 39.1325C40.95 39.5076 40.7054 40.0185 40.692 40.5075C40.682 40.8592 40.7909 41.1992 41.027 41.4689C41.3101 41.7904 41.7221 41.9529 42.1609 41.9529C42.5997 41.9529 43.0636 41.7921 43.4488 41.4689C43.6314 41.3148 43.7821 41.1406 43.896 40.9513C43.9496 40.8642 43.9931 40.7738 44.0317 40.68C44.1824 40.3116 44.2008 39.918 44.0786 39.5713Z" fill="#F7F9FC"/>
<path d="M42.7046 36.6012C42.6459 36.4337 42.5672 36.2746 42.4718 36.1238C42.4064 36.0217 42.3361 35.9245 42.254 35.8307C41.7549 35.2613 41.0264 34.9766 40.2543 34.9766C39.5492 34.9766 38.8089 35.2127 38.1674 35.685C38.1054 35.7319 38.0435 35.7788 37.9832 35.8291C36.6215 36.9646 36.3284 38.8103 37.3267 39.9475C37.3719 39.9977 37.4171 40.0463 37.4657 40.0915C37.9547 40.5638 38.6213 40.7983 39.3264 40.7983C39.7786 40.7983 40.2476 40.7012 40.6947 40.5069C41.0113 40.3695 41.3161 40.182 41.5992 39.9475C41.9207 39.6762 42.1854 39.368 42.3847 39.0364C42.46 38.9108 42.527 38.7818 42.5823 38.6512C42.5957 38.6193 42.6091 38.5892 42.6208 38.5574C42.8854 37.9059 42.9173 37.2125 42.7046 36.6012Z" fill="#F7F9FC"/>
<path d="M98.3478 86.0884H34.1161L30.8418 81.625H94.4287L98.3478 86.0884Z" fill="#D0D5DD"/>
<path d="M98.347 86.4671H34.1171C33.9965 86.4671 33.8843 86.4102 33.8139 86.313L30.5379 81.8496C30.4542 81.7357 30.4408 81.5833 30.5061 81.456C30.5698 81.3287 30.7004 81.25 30.8428 81.25H94.4296C94.5385 81.25 94.6406 81.2969 94.7126 81.379L98.6318 85.8424C98.7289 85.9529 98.7524 86.1121 98.6921 86.246C98.6284 86.3817 98.4944 86.4671 98.347 86.4671ZM34.3063 85.7134H97.513L94.2554 82.0037H31.583L34.3063 85.7134Z" fill="#F9FAFB"/>
<path d="M90.4281 34.7734C90.9958 34.7734 91.3827 35.2156 91.2956 35.7633C91.2085 36.3076 90.6793 36.7497 90.1132 36.7497H64.4815C64.3777 36.0815 64.2303 35.4182 64.041 34.7734H90.4281Z" fill="#D0D5DD"/>
<path d="M90.1134 37.1284H64.4817C64.2958 37.1284 64.1383 36.9928 64.1099 36.8085C64.0094 36.157 63.8653 35.5088 63.6794 34.8808C63.6459 34.7669 63.6677 34.643 63.7397 34.5492C63.8101 34.4537 63.9223 34.3984 64.0412 34.3984H90.4299C90.8151 34.3984 91.1702 34.5559 91.403 34.8289C91.6341 35.1002 91.7296 35.4536 91.6693 35.8237C91.5521 36.5556 90.8687 37.1284 90.1134 37.1284ZM64.8016 36.3747H90.1134C90.4952 36.3747 90.8671 36.0682 90.924 35.7048C90.9474 35.5557 90.9139 35.4184 90.8285 35.3179C90.7381 35.2107 90.5957 35.1521 90.4283 35.1521H64.5353C64.6408 35.5557 64.7296 35.9644 64.8016 36.3747Z" fill="#D0D5DD"/>
<path d="M92.034 24.7109C92.6017 24.7109 92.9886 25.1531 92.9015 25.7008C92.8145 26.2451 92.2852 26.6872 91.7191 26.6872H64.7727C64.2066 26.6872 63.8197 26.2451 63.9068 25.7008C63.9939 25.1548 64.5214 24.7109 65.0875 24.7109H92.034Z" fill="#D0D5DD"/>
<path d="M91.7187 27.0642H64.7723C64.3871 27.0642 64.0337 26.9085 63.8009 26.6355C63.5698 26.3642 63.476 26.0125 63.5346 25.6423C63.6518 24.9104 64.3335 24.3359 65.0872 24.3359H92.0336C92.4188 24.3359 92.7739 24.4934 93.0067 24.7664C93.2378 25.0377 93.3333 25.3911 93.273 25.7612C93.1574 26.4915 92.4741 27.0642 91.7187 27.0642ZM65.0872 25.0879C64.707 25.0879 64.3368 25.3961 64.2782 25.7595C64.2548 25.9086 64.2883 26.0459 64.3737 26.1464C64.4641 26.252 64.6048 26.3106 64.7723 26.3106H91.7187C92.1006 26.3106 92.4724 26.0041 92.5294 25.6406C92.5528 25.4916 92.5193 25.3542 92.4339 25.2537C92.3435 25.1466 92.2011 25.0879 92.0336 25.0879H65.0872Z" fill="#D0D5DD"/>
<path d="M85.6115 64.9688C86.1793 64.9688 86.5662 65.4109 86.4791 65.9552C86.392 66.5012 85.8627 66.9451 85.295 66.9451H45.5461C44.9816 66.9451 44.5931 66.5029 44.6802 65.9552C44.7673 65.4109 45.2965 64.9688 45.8609 64.9688H85.6115Z" fill="#D0D5DD"/>
<path d="M85.2972 67.3237H45.5467C45.1631 67.3237 44.8097 67.168 44.5769 66.895C44.3458 66.6237 44.2503 66.2703 44.3106 65.8984C44.4279 65.1665 45.1095 64.5938 45.8632 64.5938H85.6121C85.9973 64.5938 86.3524 64.7512 86.5852 65.0242C86.8163 65.2955 86.9101 65.6472 86.8515 66.0174C86.7359 66.7493 86.0526 67.3237 85.2972 67.3237ZM45.8615 65.3474C45.4813 65.3474 45.1112 65.6539 45.0526 66.0174C45.0291 66.1664 45.0626 66.3054 45.148 66.4059C45.2385 66.5131 45.3792 66.5717 45.545 66.5717H85.2956C85.6774 66.5717 86.0492 66.2636 86.1062 65.9001C86.1296 65.7527 86.0961 65.6154 86.0107 65.5149C85.9203 65.4077 85.7779 65.3491 85.6104 65.3491H45.8615V65.3474Z" fill="#D0D5DD"/>
<path d="M68.7039 42.5003C68.6738 42.3077 68.6403 42.1151 68.6034 41.9242C68.6001 41.9058 68.5967 41.8874 68.5934 41.8689C68.5867 41.8338 68.5766 41.7986 68.5699 41.7617C68.5381 41.606 68.5029 41.4502 68.4661 41.2961C68.4527 41.2392 68.4393 41.1806 68.4242 41.1236C68.374 40.9227 68.3204 40.7233 68.2634 40.5257C68.1847 40.2561 68.0943 39.9898 68.0005 39.7251C67.9888 39.6916 67.9804 39.6581 67.967 39.6247C67.9553 39.5895 67.9385 39.556 67.9268 39.5225C67.838 39.2813 67.7442 39.0435 67.6421 38.8073C67.6337 38.7856 67.6253 38.7655 67.6153 38.7437C67.5047 38.4908 67.3842 38.2412 67.2602 37.9934C67.2451 37.9649 67.2334 37.9364 67.22 37.9079C67.1999 37.8677 67.1748 37.8276 67.1547 37.7874C67.0693 37.6249 66.9805 37.4658 66.8901 37.305C66.8516 37.2397 66.8164 37.1727 66.7762 37.1074C66.6472 36.8896 66.5132 36.6736 66.3709 36.4609C66.3709 36.4592 66.3692 36.4592 66.3692 36.4575C66.2503 36.28 66.128 36.1041 66.0007 35.93L61.7768 30.1719C61.9058 30.3461 62.028 30.5236 62.1486 30.7028C62.291 30.9155 62.425 31.1316 62.5539 31.3493C62.5924 31.4146 62.6293 31.4816 62.6678 31.5469C62.7583 31.706 62.847 31.8668 62.9324 32.0276C62.9693 32.0963 63.0045 32.1649 63.0396 32.2336C63.1652 32.4815 63.2842 32.731 63.3947 32.9839C63.4031 33.004 63.4114 33.0258 63.4198 33.0476C63.522 33.2837 63.6158 33.5215 63.7045 33.7627C63.7297 33.8297 63.7548 33.8984 63.7782 33.9654C63.872 34.23 63.9608 34.4963 64.0395 34.766C64.0981 34.9636 64.15 35.1629 64.2003 35.3639C64.2154 35.4225 64.2288 35.4794 64.2422 35.5381C64.279 35.6921 64.3125 35.8462 64.3443 36.002C64.356 36.0573 64.3678 36.1108 64.3778 36.1661C64.4147 36.357 64.4498 36.5497 64.4783 36.7423C64.887 39.3667 64.6475 42.1369 63.79 44.8317C63.5806 45.4966 63.3294 46.1565 63.0446 46.808C62.986 46.942 62.9241 47.0743 62.8638 47.2066C62.8152 47.3105 62.7666 47.4143 62.7164 47.5182C62.6745 47.6036 62.6326 47.6907 62.5908 47.7761C62.5389 47.8799 62.4853 47.9821 62.4317 48.0859C62.3881 48.1713 62.3429 48.2551 62.2977 48.3388C62.2424 48.4427 62.1855 48.5448 62.1268 48.6487C62.0799 48.7324 62.0331 48.8145 61.9862 48.8982C61.9259 49.0004 61.8656 49.1042 61.8036 49.2064C61.7584 49.2818 61.7148 49.3555 61.6679 49.4308C61.5072 49.6904 61.3413 49.9484 61.1688 50.2029C61.1353 50.2532 61.1002 50.3034 61.065 50.3553C60.8875 50.6149 60.7032 50.8712 60.5123 51.1258C60.4888 51.1559 60.4654 51.1861 60.4436 51.2145C60.2912 51.4138 60.1355 51.6115 59.9764 51.8074C59.9328 51.861 59.8893 51.9146 59.844 51.9699C59.6632 52.1876 59.4772 52.4053 59.2863 52.618C59.2562 52.6515 59.226 52.6834 59.1959 52.7168C59.0401 52.8894 58.881 53.0585 58.7186 53.2277C58.665 53.2846 58.6097 53.3399 58.5544 53.3952C58.3836 53.5693 58.2077 53.7435 58.0302 53.9127C58.0051 53.9378 57.9799 53.9629 57.9548 53.9864C57.8476 54.0869 57.7388 54.1857 57.6299 54.2862C57.5713 54.3398 57.5127 54.395 57.4524 54.4486C57.2815 54.601 57.109 54.7501 56.9332 54.8992C56.7138 55.0834 56.496 55.2576 56.28 55.4267C56.2649 55.4385 56.2498 55.4502 56.2348 55.4619C56.0321 55.6193 55.8311 55.7701 55.6302 55.9175C55.5967 55.9426 55.5615 55.9677 55.528 55.9928C55.3471 56.1235 55.1662 56.2508 54.9853 56.373C54.7324 56.5455 54.4779 56.713 54.2233 56.8738C53.9721 57.0312 53.7192 57.182 53.4629 57.3277C53.3959 57.3662 53.3289 57.4014 53.2619 57.4399C53.0375 57.5655 52.8131 57.6878 52.587 57.805C52.5016 57.8485 52.4161 57.8938 52.3307 57.9373C52.0828 58.0629 51.8333 58.1818 51.5821 58.2974C51.5368 58.3175 51.4933 58.3393 51.4481 58.3594C51.3895 58.3862 51.3292 58.4113 51.2705 58.4364C51.1064 58.5084 50.9423 58.5805 50.7765 58.6474C50.6944 58.6809 50.6123 58.7128 50.5303 58.7463C50.3862 58.8032 50.2405 58.8601 50.0965 58.9154C50.0094 58.9489 49.9206 58.9807 49.8335 59.0126C49.6912 59.0645 49.5488 59.1131 49.4065 59.1616C49.3194 59.1918 49.2323 59.2202 49.1435 59.2487C49.0263 59.2872 48.9074 59.3224 48.7901 59.3593C48.6461 59.4028 48.5004 59.4464 48.3563 59.4882C48.2441 59.52 48.1319 59.5502 48.018 59.5803C47.874 59.6189 47.7316 59.6557 47.5876 59.6909C47.4737 59.7193 47.3598 59.7461 47.2476 59.7713C47.1036 59.8048 46.9595 59.8349 46.8155 59.8651C46.7033 59.8885 46.5894 59.9119 46.4772 59.932C46.3315 59.9588 46.1857 59.9856 46.04 60.0091C45.9295 60.0275 45.8173 60.0459 45.7067 60.0627C45.5577 60.0845 45.4086 60.1046 45.2612 60.1247C45.154 60.1381 45.0452 60.1531 44.938 60.1665C44.7822 60.185 44.6281 60.1983 44.4741 60.2117C44.3736 60.2201 44.2714 60.2318 44.1709 60.2385C44.0001 60.2519 43.8309 60.2603 43.6618 60.2687C43.5764 60.2737 43.4926 60.2787 43.4072 60.2821C43.1526 60.2921 42.8997 60.2972 42.6468 60.2972C39.7644 60.2972 36.9825 59.6657 34.5423 58.4029C33.7451 57.9909 32.9847 57.5102 32.2695 56.9626L36.4935 62.7207C37.2086 63.2683 37.969 63.7473 38.7662 64.161C41.2048 65.4238 43.9884 66.0552 46.8691 66.0552C47.122 66.0552 47.3749 66.0502 47.6295 66.0402C47.7149 66.0368 47.7986 66.0301 47.884 66.0268C48.0532 66.0184 48.224 66.01 48.3932 65.9966C48.4937 65.9883 48.5942 65.9782 48.6947 65.9698C48.8504 65.9564 49.0045 65.9414 49.1603 65.9246C49.2674 65.9129 49.3746 65.8978 49.4818 65.8844C49.6309 65.8643 49.7799 65.8459 49.929 65.8224C50.0395 65.8057 50.1518 65.7873 50.2623 65.7689C50.408 65.7437 50.5537 65.7186 50.6994 65.6918C50.8116 65.67 50.9255 65.6483 51.0378 65.6248C51.1818 65.5947 51.3258 65.5645 51.4699 65.531C51.5837 65.5059 51.696 65.4791 51.8082 65.4506C51.9522 65.4155 52.0962 65.3786 52.2403 65.3401C52.3525 65.31 52.4647 65.2798 52.5769 65.248C52.7226 65.2061 52.8667 65.1626 53.0124 65.119C53.0844 65.0972 53.1581 65.0771 53.2301 65.0554C53.2753 65.0403 53.3206 65.0252 53.3658 65.0102C53.4529 64.9817 53.54 64.9515 53.6287 64.9231C53.7711 64.8745 53.9134 64.8259 54.0558 64.774C54.1429 64.7422 54.2317 64.7104 54.3188 64.6769C54.4645 64.6233 54.6085 64.5663 54.7525 64.5077C54.8346 64.4742 54.9167 64.4424 54.9987 64.4089C55.1645 64.3402 55.3287 64.2699 55.4928 64.1979C55.5514 64.1711 55.6117 64.1476 55.6703 64.1208C55.6804 64.1158 55.6921 64.1108 55.7022 64.1074C55.7357 64.0923 55.7692 64.0739 55.8027 64.0588C56.0539 63.9433 56.3034 63.8244 56.5513 63.6988C56.6367 63.6552 56.7221 63.6117 56.8076 63.5664C57.0337 63.4492 57.2598 63.3269 57.4825 63.2013C57.5311 63.1745 57.5797 63.1511 57.6266 63.1226C57.645 63.1126 57.6651 63.0992 57.6835 63.0891C57.9381 62.9434 58.1927 62.7927 58.4439 62.6352C58.7001 62.4744 58.953 62.307 59.2059 62.1345C59.2294 62.1194 59.2512 62.1043 59.2746 62.0892C59.432 61.9804 59.5911 61.8682 59.7486 61.7543C59.7821 61.7291 59.8172 61.704 59.8507 61.6789C60.0517 61.5315 60.2527 61.3808 60.4537 61.2233C60.4688 61.2116 60.4838 61.1999 60.4989 61.1882C60.6061 61.1044 60.715 61.019 60.8221 60.9303C60.931 60.8415 61.0415 60.751 61.1504 60.6589C61.3263 60.5099 61.4988 60.3608 61.6696 60.2084C61.7299 60.1548 61.7868 60.1012 61.8455 60.0476C61.9543 59.9471 62.0649 59.8483 62.1721 59.7461C62.1771 59.7411 62.1838 59.7361 62.1888 59.7311C62.2089 59.7126 62.2273 59.6925 62.2458 59.6741C62.425 59.5033 62.5992 59.3291 62.7717 59.1549C62.8269 59.0996 62.8805 59.0427 62.9341 58.9874C63.0966 58.8183 63.2557 58.6491 63.4114 58.4766C63.4349 58.4515 63.46 58.4264 63.4818 58.4012C63.4885 58.3945 63.4935 58.3862 63.5002 58.3795C63.6911 58.1651 63.8771 57.949 64.0579 57.7313C64.1032 57.6777 64.1467 57.6241 64.1902 57.5705C64.3493 57.3746 64.5068 57.1769 64.6575 56.9776C64.6743 56.9542 64.6944 56.9324 64.7111 56.909C64.7161 56.9023 64.7212 56.8956 64.7262 56.8889C64.9171 56.6343 65.1014 56.378 65.2789 56.1184C65.3141 56.0682 65.3476 56.018 65.3827 55.9677C65.5552 55.7115 65.7227 55.4535 65.8835 55.1939C65.8935 55.1772 65.9053 55.1621 65.9153 55.1454C65.9505 55.0867 65.984 55.0281 66.0192 54.9695C66.0811 54.8673 66.1414 54.7652 66.2017 54.6613C66.2503 54.5776 66.2955 54.4939 66.3424 54.4118C66.3993 54.3096 66.4563 54.2075 66.5116 54.1036C66.5568 54.0199 66.602 53.9345 66.6455 53.849C66.6991 53.7469 66.7527 53.643 66.803 53.5392C66.8465 53.4538 66.8884 53.3684 66.9303 53.2813C66.9805 53.1774 67.0291 53.0736 67.0777 52.9697C67.0978 52.9245 67.1212 52.881 67.1413 52.8358C67.1815 52.747 67.22 52.6599 67.2585 52.5711C67.5449 51.9196 67.7945 51.2597 68.0038 50.5948C68.8731 47.8967 69.1126 45.1265 68.7039 42.5003Z" fill="#D0D5DD"/>
<path d="M46.8695 66.4347C43.9017 66.4347 41.0411 65.7647 38.5925 64.4969C37.7701 64.0715 36.988 63.5757 36.2628 63.0213C36.2343 62.9996 36.2092 62.9745 36.1874 62.9443L31.9635 57.1862C31.8529 57.0355 31.8697 56.8261 32.0037 56.6938C32.1377 56.5632 32.347 56.5498 32.4961 56.6637C33.1844 57.1912 33.9297 57.6635 34.7135 58.0688C37.055 59.2814 39.7967 59.9212 42.6439 59.9212C42.8801 59.9212 43.1313 59.9162 43.3892 59.9062C43.4378 59.9045 43.4847 59.9011 43.5332 59.8978L43.6388 59.8911C43.8062 59.8827 43.972 59.8743 44.1395 59.8609C44.2048 59.8559 44.2702 59.8492 44.3338 59.8442L44.436 59.8341C44.5917 59.8207 44.7425 59.8057 44.8915 59.7889C44.9702 59.7805 45.049 59.7688 45.1277 59.7588L45.2098 59.7487C45.3555 59.7303 45.5012 59.7102 45.6486 59.6884C45.7457 59.6734 45.8445 59.6566 45.9417 59.6398L45.9751 59.6348C46.1175 59.6114 46.2615 59.5863 46.4039 59.5595C46.5144 59.5377 46.625 59.5159 46.7372 59.4925C46.8779 59.464 47.0203 59.4322 47.1609 59.4003C47.2732 59.3752 47.3837 59.3484 47.4959 59.3216C47.6366 59.2865 47.779 59.2513 47.9196 59.2128C48.0302 59.1826 48.1407 59.1542 48.2513 59.1223C48.3936 59.0821 48.536 59.0386 48.6783 58.995L48.7252 58.98C48.8257 58.9498 48.9262 58.918 49.025 58.8862C49.1121 58.8577 49.1975 58.8292 49.283 58.8008C49.4236 58.7539 49.5627 58.7053 49.7033 58.6534C49.7888 58.6216 49.8758 58.5914 49.9613 58.5579C50.1036 58.5043 50.246 58.449 50.3883 58.3921L50.4537 58.367C50.5123 58.3435 50.5726 58.3201 50.6312 58.2966C50.7937 58.2296 50.9544 58.1593 51.1169 58.0889L51.1939 58.0555C51.2258 58.0421 51.2593 58.027 51.2911 58.0136L51.4217 57.9516C51.6629 57.8411 51.9108 57.7222 52.157 57.5982C52.2407 57.5564 52.3261 57.5128 52.4099 57.4693C52.631 57.3554 52.8537 57.2348 53.0748 57.1108L53.1569 57.0656C53.1954 57.0439 53.2339 57.0238 53.2724 57.002C53.5471 56.8445 53.7916 56.6988 54.0194 56.5548C54.2522 56.4091 54.4967 56.2483 54.7697 56.0624C54.9473 55.9401 55.1265 55.8162 55.304 55.6872L55.4045 55.6135C55.6222 55.4544 55.8165 55.3071 55.999 55.1647L56.0443 55.1278C56.2704 54.9503 56.4814 54.7795 56.6857 54.6086C56.8582 54.4629 57.0274 54.3155 57.1949 54.1665C57.2301 54.1347 57.2636 54.1028 57.2987 54.071L57.4126 53.9672C57.5047 53.8834 57.5985 53.798 57.689 53.7126L57.7643 53.6406C57.9335 53.4781 58.1026 53.3123 58.2818 53.1298C58.3354 53.0745 58.389 53.0192 58.4426 52.964C58.6017 52.7981 58.7592 52.6307 58.9116 52.4615L59.0004 52.366C59.1779 52.1684 59.3571 51.959 59.5497 51.7279L59.6803 51.5688C59.8461 51.3662 59.9969 51.1752 60.1392 50.986L60.2079 50.8989C60.3821 50.6677 60.5596 50.4199 60.7506 50.1419L60.8527 49.9928C61.0269 49.7365 61.191 49.4803 61.3435 49.2341C61.382 49.1704 61.4205 49.1068 61.459 49.0432L61.4758 49.0147C61.5361 48.9142 61.5963 48.8137 61.655 48.7115C61.6968 48.6395 61.737 48.5675 61.7772 48.4955L61.794 48.4653C61.8509 48.3649 61.9062 48.2627 61.9615 48.1622C62.0067 48.0801 62.0502 47.9964 62.0938 47.9126C62.1457 47.8122 62.1976 47.71 62.2495 47.6095C62.2914 47.5258 62.3333 47.442 62.3735 47.3566C62.4221 47.2544 62.4706 47.1539 62.5175 47.0518L62.5326 47.0166C62.5879 46.8977 62.6431 46.7788 62.695 46.6599C62.9781 46.0134 63.226 45.3619 63.427 44.7204C64.266 42.0876 64.4988 39.3509 64.1019 36.8035C64.0751 36.6293 64.0433 36.445 64.0031 36.2407L63.9696 36.0799C63.9378 35.9275 63.906 35.7768 63.8691 35.626L63.8272 35.4552C63.772 35.2325 63.7217 35.0465 63.6698 34.874C63.6011 34.6412 63.5207 34.3934 63.4135 34.0919C63.3901 34.0266 63.3667 33.9596 63.3415 33.8943C63.2461 33.638 63.1556 33.4102 63.0635 33.1975L63.0384 33.1356C62.9412 32.9128 62.829 32.675 62.6917 32.4053C62.6582 32.3383 62.623 32.2713 62.5879 32.2044C62.5041 32.0469 62.4187 31.8912 62.3299 31.7354L62.2948 31.6751C62.2696 31.6316 62.2445 31.5863 62.2177 31.5428C62.077 31.3066 61.9481 31.1006 61.8225 30.9131C61.7052 30.7372 61.583 30.563 61.4607 30.3955C61.3384 30.228 61.3736 29.9919 61.5411 29.8696C61.7086 29.7474 61.9447 29.7825 62.067 29.95L62.0687 29.9517L66.2909 35.7081C66.4199 35.884 66.5472 36.0665 66.6694 36.2491C66.6711 36.2524 66.6728 36.2558 66.6761 36.2591C66.8084 36.4584 66.9424 36.6728 67.0881 36.9157C67.1166 36.9626 67.1417 37.0095 67.1685 37.0547L67.2037 37.1166C67.2975 37.2808 67.3879 37.4449 67.475 37.6107L67.4985 37.6543C67.5135 37.6811 67.5286 37.7079 67.542 37.7347C67.5521 37.7531 67.5604 37.7732 67.5688 37.7916L67.5822 37.8218C67.7246 38.1031 67.8435 38.3544 67.9473 38.5922L67.9741 38.6558C68.073 38.887 68.1684 39.1264 68.2672 39.3911L68.2806 39.4262C68.2907 39.4497 68.3007 39.4731 68.3091 39.4983C68.3175 39.52 68.3242 39.5435 68.3309 39.5669L68.3426 39.6021C68.4531 39.9119 68.5386 40.1732 68.6106 40.4211C68.6642 40.6037 68.7161 40.7979 68.7764 41.0324C68.7881 41.0776 68.7982 41.1245 68.8099 41.1698L68.8199 41.2099C68.8584 41.3691 68.8936 41.5282 68.9254 41.6873L68.9355 41.7291C68.9405 41.7509 68.9455 41.7727 68.9506 41.7961L68.9606 41.8548C69.0025 42.0725 69.036 42.2651 69.0644 42.446C69.4781 45.109 69.237 47.9646 68.3627 50.7063C68.1533 51.3695 67.8971 52.0478 67.6023 52.7194C67.5638 52.8082 67.5236 52.8986 67.4834 52.9874C67.47 53.0159 67.4583 53.0427 67.4449 53.0695L67.4181 53.1247C67.3695 53.2303 67.3193 53.3358 67.269 53.4396C67.2272 53.5284 67.1836 53.6155 67.1401 53.7026C67.0881 53.8081 67.0346 53.9119 66.9793 54.0174C66.9341 54.1045 66.8888 54.1899 66.8419 54.277C66.785 54.3825 66.7281 54.4864 66.6694 54.5902L66.6443 54.6354C66.6058 54.7058 66.5656 54.7761 66.5254 54.8448C66.4651 54.9503 66.4031 55.0541 66.3395 55.158L66.2959 55.23C66.2758 55.2652 66.2541 55.3004 66.234 55.3355L66.2105 55.3724C66.043 55.642 65.8722 55.9066 65.693 56.1713L65.5875 56.3237C65.3882 56.6134 65.2039 56.8697 65.0247 57.1075L64.9544 57.1996C64.807 57.3922 64.6479 57.5966 64.4787 57.8026L64.462 57.8243C64.4235 57.8712 64.385 57.9198 64.3448 57.9667C64.1455 58.2062 63.9612 58.4222 63.777 58.6266L63.7569 58.65C63.7435 58.6651 63.7284 58.6818 63.7134 58.6969L63.6849 58.7271C63.5258 58.9013 63.365 59.0738 63.2009 59.2446C63.1456 59.3015 63.0903 59.3585 63.035 59.4154C62.8491 59.6047 62.6733 59.7772 62.5008 59.943L62.4807 59.9631C62.4673 59.9765 62.4555 59.9882 62.4421 60.0016C62.4405 60.0033 62.4287 60.0133 62.4271 60.015C62.3333 60.1038 62.2378 60.1909 62.1424 60.278L62.0268 60.3852C61.9899 60.4186 61.9531 60.4538 61.9146 60.4873C61.7421 60.6414 61.5662 60.7938 61.387 60.9446C61.2748 61.0383 61.1642 61.1305 61.0537 61.2192C60.9432 61.308 60.8343 61.3951 60.7254 61.4805L60.6802 61.5173C60.4893 61.6664 60.2883 61.8188 60.0672 61.9796L59.9634 62.0566C59.8026 62.1722 59.6418 62.2878 59.481 62.3983C59.466 62.4084 59.4509 62.4184 59.4358 62.4285L59.4107 62.4452C59.131 62.6361 58.8764 62.8019 58.6352 62.9544C58.3957 63.1051 58.1428 63.2558 57.8631 63.4166L57.8045 63.4518C57.7761 63.4685 57.7459 63.4836 57.7174 63.4987C57.6973 63.5087 57.6772 63.5188 57.6588 63.5305C57.4294 63.6595 57.1982 63.7834 56.9721 63.9006C56.885 63.9459 56.7979 63.9911 56.7109 64.0346C56.4546 64.1636 56.1984 64.2859 55.9505 64.3997L55.912 64.4182C55.8902 64.4282 55.8684 64.4399 55.8466 64.4483L55.8232 64.4584C55.778 64.4785 55.7411 64.4952 55.7043 64.5103L55.6339 64.5404C55.4665 64.6141 55.299 64.6861 55.1315 64.7548C55.0729 64.7799 55.0126 64.8034 54.9523 64.8268L54.8819 64.8553C54.7345 64.9139 54.5872 64.9709 54.4398 65.0261C54.351 65.0596 54.2622 65.0914 54.1735 65.1249C54.0294 65.1769 53.8837 65.2271 53.7397 65.2774C53.6476 65.3075 53.5605 65.3376 53.4734 65.3661L53.4165 65.3845C53.3897 65.3946 53.3612 65.403 53.3344 65.4113C53.2908 65.4247 53.2473 65.4381 53.2021 65.4499L53.1133 65.4767C52.9659 65.5219 52.8185 65.5654 52.6711 65.6073C52.5573 65.6391 52.4434 65.6709 52.3295 65.7011C52.1821 65.7396 52.0364 65.7781 51.889 65.8133C51.7751 65.8418 51.6595 65.8686 51.544 65.8954C51.3966 65.9289 51.2509 65.9607 51.1035 65.9908C50.9879 66.0143 50.874 66.0377 50.7585 66.0595C50.6111 66.088 50.462 66.1131 50.313 66.1382L50.2745 66.1449C50.174 66.1617 50.0751 66.1784 49.9747 66.1935C49.8223 66.2169 49.6715 66.237 49.5191 66.2555L49.437 66.2655C49.355 66.2756 49.2729 66.2873 49.1925 66.2956C49.0351 66.3141 48.8776 66.3275 48.7202 66.3425L48.6197 66.3526C48.5494 66.3593 48.4807 66.366 48.4104 66.371C48.2362 66.3844 48.0637 66.3928 47.8912 66.4012L47.794 66.4062C47.7404 66.4095 47.6868 66.4129 47.6332 66.4146C47.377 66.4296 47.1157 66.4347 46.8695 66.4347ZM36.7652 62.4552C37.4419 62.9694 38.1738 63.43 38.9408 63.8269C41.2823 65.0395 44.024 65.6793 46.8712 65.6793C47.1073 65.6793 47.3586 65.6743 47.6165 65.6642C47.6651 65.6626 47.7136 65.6592 47.7622 65.6559L47.866 65.6492C48.0335 65.6408 48.1993 65.6324 48.3668 65.619C48.4321 65.614 48.4975 65.6073 48.5628 65.6023L48.6649 65.5922C48.819 65.5788 48.9698 65.5637 49.1222 65.547C49.1992 65.5386 49.2763 65.5286 49.355 65.5185L49.4387 65.5068C49.5844 65.4884 49.7318 65.4683 49.8775 65.4465C49.973 65.4314 50.0701 65.4164 50.1656 65.3996L50.2041 65.3929C50.3481 65.3695 50.4905 65.3443 50.6329 65.3175C50.7434 65.2958 50.854 65.274 50.9662 65.2505C51.1085 65.2221 51.2492 65.1903 51.3916 65.1584C51.5021 65.1333 51.6143 65.1065 51.7249 65.0797C51.8672 65.0446 52.0079 65.0077 52.1503 64.9709C52.2608 64.9407 52.3713 64.9122 52.4802 64.8804C52.6226 64.8402 52.7649 64.7967 52.9073 64.7531L53.0078 64.723C53.0463 64.7113 53.0832 64.7012 53.12 64.6895L53.254 64.6443C53.3377 64.6175 53.4231 64.589 53.5069 64.5605C53.6509 64.5119 53.7916 64.4634 53.9306 64.4131C54.016 64.3813 54.1031 64.3512 54.1886 64.3177C54.3309 64.2641 54.4733 64.2088 54.6156 64.1519L54.6877 64.1234C54.7446 64.1016 54.7999 64.0782 54.8568 64.0564C55.0193 63.9894 55.1817 63.9191 55.3425 63.8487L55.4196 63.8152C55.4531 63.8018 55.4849 63.7867 55.5167 63.7733L55.5904 63.7399C55.6105 63.7298 55.6289 63.7214 55.649 63.7114C55.8885 63.6008 56.1364 63.4819 56.3859 63.358C56.4714 63.3161 56.5551 63.2726 56.6388 63.229C56.8582 63.1151 57.081 62.9946 57.3037 62.8706C57.3289 62.8572 57.354 62.8438 57.3791 62.8304C57.4009 62.8187 57.4227 62.807 57.4444 62.7952L57.4997 62.7617C57.7727 62.606 58.0172 62.4586 58.2484 62.3146C58.4812 62.1689 58.7274 62.0081 58.9987 61.8222L59.0657 61.7786C59.2214 61.6714 59.3772 61.5609 59.533 61.4487L59.6351 61.3733C59.8495 61.2159 60.0438 61.0702 60.228 60.9245L60.2732 60.8876C60.3771 60.8055 60.4843 60.7218 60.5915 60.6347C60.6986 60.5476 60.8075 60.4588 60.9147 60.3684C61.0872 60.2227 61.2564 60.0753 61.4238 59.9262C61.459 59.8961 61.4925 59.8643 61.5243 59.8341L61.6449 59.7236C61.7354 59.6398 61.8275 59.5578 61.9162 59.4724C61.9179 59.4707 61.9263 59.4623 61.9296 59.4606L61.9916 59.4003C62.1591 59.2412 62.3283 59.0738 62.5091 58.8895C62.5627 58.8343 62.6163 58.779 62.6699 58.7237C62.829 58.5579 62.9865 58.3904 63.1389 58.2213L63.2276 58.1241C63.4035 57.9265 63.5844 57.7188 63.777 57.486C63.8155 57.4408 63.8524 57.3956 63.8892 57.3487L63.9076 57.3269C64.0701 57.1276 64.2258 56.93 64.3682 56.7441L64.4369 56.6553C64.6094 56.4275 64.7869 56.1796 64.9795 55.8999L65.08 55.7526C65.2542 55.4963 65.4183 55.2401 65.5724 54.9922L65.6026 54.9453C65.621 54.9151 65.6394 54.8833 65.6578 54.8515L65.7047 54.7728C65.765 54.6723 65.8253 54.5718 65.8839 54.4713C65.9225 54.4043 65.961 54.3373 65.9978 54.2686L66.0229 54.2234C66.0782 54.1229 66.1352 54.0225 66.1888 53.922C66.234 53.8382 66.2775 53.7561 66.3211 53.6724C66.373 53.5719 66.4249 53.4714 66.4752 53.3693C66.517 53.2838 66.5589 53.2001 66.6008 53.1147C66.6493 53.0142 66.6979 52.912 66.7448 52.8099L66.8084 52.6776C66.847 52.5921 66.8855 52.5067 66.924 52.4196C67.2087 51.7715 67.4549 51.12 67.6559 50.4802C68.495 47.8473 68.7278 45.1106 68.3309 42.5632C68.3041 42.3924 68.2723 42.2098 68.2321 42.0021L68.2002 41.843C68.1684 41.6906 68.1349 41.5399 68.0997 41.3892L68.0897 41.3473C68.0797 41.3054 68.0696 41.2619 68.0595 41.22C68.0026 40.9956 67.9524 40.8097 67.9021 40.6372C67.8334 40.401 67.7514 40.1531 67.6459 39.8567C67.6392 39.8349 67.6325 39.8165 67.6258 39.7964C67.6224 39.7847 67.6174 39.7713 67.614 39.7595C67.609 39.7461 67.604 39.7344 67.599 39.7227C67.5906 39.7026 67.5822 39.6808 67.5738 39.6607C67.4801 39.4095 67.3896 39.18 67.2958 38.964L67.2707 38.902C67.1736 38.6776 67.0597 38.4381 66.924 38.1701C66.9156 38.1534 66.9056 38.1333 66.8972 38.1148L66.8838 38.0847C66.8754 38.068 66.8654 38.0495 66.8553 38.0328C66.8436 38.0127 66.8319 37.9909 66.8202 37.9691C66.7364 37.81 66.651 37.6543 66.5622 37.4985L66.5254 37.4332C66.5019 37.3913 66.4768 37.3478 66.4517 37.3059C66.311 37.0698 66.1821 36.8621 66.0564 36.6762C66.0548 36.6745 66.0531 36.6711 66.0514 36.6678C65.9359 36.4953 65.8153 36.3244 65.6947 36.1586L64.2526 34.1924C64.3096 34.3615 64.3582 34.5173 64.4017 34.6664C64.4553 34.8489 64.5089 35.0432 64.5675 35.2777L64.6111 35.4552C64.6479 35.6143 64.6831 35.7718 64.7166 35.9309L64.7517 36.0983C64.7936 36.3127 64.8271 36.5053 64.8556 36.6896C65.2693 39.3526 65.0264 42.2082 64.1538 44.9499C63.9445 45.6148 63.6882 46.2931 63.3935 46.963C63.3399 47.0869 63.2812 47.2109 63.2243 47.3348L63.2092 47.3683C63.1607 47.4738 63.1104 47.5793 63.0602 47.6849C63.0183 47.772 62.9747 47.859 62.9312 47.9478C62.8776 48.0533 62.824 48.1588 62.7704 48.2627C62.7252 48.3481 62.68 48.4352 62.6348 48.5206C62.5778 48.6261 62.5192 48.73 62.4606 48.8355L62.4438 48.8656C62.402 48.941 62.3601 49.0147 62.3165 49.0901C62.2562 49.1956 62.1943 49.2994 62.1306 49.4032L62.1139 49.4317C62.0737 49.4987 62.0335 49.5657 61.9933 49.631C61.8359 49.8873 61.665 50.1519 61.4841 50.4182L61.3786 50.5723C61.181 50.8604 60.9968 51.1166 60.8159 51.3561L60.7455 51.4466C60.5965 51.6425 60.4407 51.8401 60.2699 52.0495L60.1342 52.2136C59.9366 52.4531 59.7507 52.6675 59.5665 52.8718L59.4743 52.9706C59.3152 53.1448 59.1544 53.3173 58.9886 53.4899C58.9334 53.5468 58.8781 53.6037 58.8228 53.6607C58.6386 53.8483 58.4644 54.0208 58.2886 54.1883L58.2115 54.2636C58.1177 54.3524 58.0223 54.4395 57.9251 54.5283L57.8162 54.6287C57.7777 54.6639 57.7409 54.6991 57.7024 54.7326C57.5299 54.8867 57.354 55.0391 57.1748 55.1898C56.9621 55.3673 56.746 55.5432 56.5115 55.7258L56.4663 55.7626C56.2771 55.91 56.0761 56.0624 55.8533 56.2249L55.7495 56.3019C55.5653 56.4359 55.381 56.5632 55.1985 56.6888C54.9188 56.8797 54.6642 57.0455 54.423 57.1979C54.1852 57.347 53.9323 57.4977 53.6509 57.6602C53.6091 57.6836 53.5672 57.7071 53.5236 57.7305L53.4466 57.7741C53.2188 57.9014 52.9877 58.027 52.7599 58.1442C52.6728 58.1894 52.5857 58.2347 52.4986 58.2782C52.2424 58.4072 51.9878 58.5294 51.7383 58.6433L51.6796 58.6701C51.6545 58.6818 51.6277 58.6952 51.6026 58.707C51.5658 58.7237 51.5289 58.7388 51.4921 58.7555L51.42 58.7857C51.2526 58.8594 51.0851 58.9314 50.9176 59.0001C50.8556 59.0252 50.7937 59.0503 50.73 59.0754L50.6664 59.1006C50.519 59.1592 50.3733 59.2161 50.2242 59.2714C50.1354 59.3049 50.0467 59.3367 49.9562 59.3702C49.8122 59.4221 49.6665 59.4724 49.5225 59.5209C49.4337 59.5511 49.3449 59.5812 49.2562 59.6097C49.1523 59.6432 49.0468 59.675 48.943 59.7068L48.8961 59.7202C48.7487 59.7655 48.6013 59.809 48.4539 59.8509C48.34 59.8827 48.2245 59.9145 48.1106 59.9447C47.9649 59.9832 47.8191 60.0217 47.6718 60.0569C47.5562 60.0854 47.4406 60.1122 47.3251 60.139C47.1794 60.1725 47.032 60.2043 46.8863 60.2344C46.7724 60.2579 46.6568 60.2813 46.5412 60.3031C46.3922 60.3316 46.2448 60.3567 46.0957 60.3818L46.0622 60.3868C45.9601 60.4036 45.8579 60.4203 45.7557 60.4371C45.6033 60.4605 45.4526 60.4806 45.3019 60.499L45.2215 60.5091C45.1377 60.5208 45.0557 60.5309 44.9736 60.5409C44.8178 60.5593 44.6621 60.5727 44.5063 60.5878L44.4025 60.5979C44.3321 60.6046 44.2618 60.6113 44.1931 60.6163C44.0206 60.6297 43.8481 60.6381 43.6756 60.6464L43.5768 60.6515C43.5232 60.6548 43.4696 60.6582 43.416 60.6598C43.148 60.6699 42.8884 60.6749 42.6422 60.6749C39.6744 60.6749 36.8138 60.005 34.3652 58.7371C34.1793 58.6417 33.9967 58.5412 33.8158 58.439L36.7652 62.4552Z" fill="#F9FAFB"/>
</g>
<defs>
<clipPath id="clip0_2168_168432">
<rect width="127.802" height="112.268" fill="white" transform="translate(0.599609)"/>
</clipPath>
</defs>
</svg>
